# xmcd
#
# Track frame offsets:
#	150
#	18462
#	32532
#	45860
#	60315
#	76747
#	90892
#	104932
#	118327
#	134397
#	145860
#	156772
#
# Disc length: 2298 seconds
#
# Revision: 1
# Processed by: cddbd v1.5.1PL0 Copyright (c) Steve Scherf et al.
# Submitted via: CDex 1.50Beta5
#
DISCID=9008f80c
DTITLE=ダニエル・リカ-リ - ダニエル・リカ-リ
DYEAR=1900
DGENRE=
TTITLE0=ふたりの天使
TTITLE1=おもいでの夏
TTITLE2=シェルブ-ルの雨傘
TTITLE3=シバの女王
TTITLE4=リカ-リのテ-マ
TTITLE5=恋人たちのバラ-ド
TTITLE6=天使のヴォ-カル
TTITLE7=ノスタルジ-
TTITLE8=夢のメロディ-
TTITLE9=渚のアデリ-ヌ
TTITLE10=ファンタジ-・ラグタイム
TTITLE11=ラ・マドンナ
EXTD=
EXTT0=
EXTT1=
EXTT2=
EXTT3=
EXTT4=
EXTT5=
EXTT6=
EXTT7=
EXTT8=
EXTT9=
EXTT10=
EXTT11=
PLAYORDER=
